<?xml version="1.0" standalone="no"?><svg xmlns="http://www.w3.org/2000/svg" viewBox="0 0 1440 320"><path fill="#eafaff" fill-opacity="1" d="M0,128L40,149.3C80,171,160,213,240,224C320,235,400,213,480,192C560,171,640,149,720,144C800,139,880,149,960,133.3C1040,117,1120,75,1200,80C1280,85,1360,139,1400,165.3L1440,192L1440,320L1400,320C1360,320,1280,320,1200,320C1120,320,1040,320,960,320C880,320,800,320,720,320C640,320,560,320,480,320C400,320,320,320,240,320C160,320,80,320,40,320L0,320Z"></path></svg>